<svg xmlns="http://www.w3.org/2000/svg" xmlns:xlink="http://www.w3.org/1999/xlink" version="1.0" x="0px" y="0px" viewBox="0 0 100 100" enable-background="new 0 0 100 100" xml:space="preserve"><rect x="45.483" y="49.987" width="2.492" height="33.106"></rect><rect x="88.2" y="49.987" width="2.848" height="33.106"></rect><rect x="40.855" y="48.207" width="53.041" height="2.848"></rect><rect x="78.772" y="17.891" transform="matrix(0.9931 0.1172 -0.1172 0.9931 4.192 -9.145)" width="2.126" height="26.342"></rect><path d="M80.414,32.9l2.907,12.103c0,0,1.001,3.204-1.42,3.204c-2.422,0-7.049,0-7.049,0s0.371-0.712,1.476-0.712  c1.105,0,4.239,0,5.644,0c1.404,0,0.89-2.269,0.89-2.269l-3.026-11.97L80.414,32.9z"></path><path d="M54.538,48.207c0-0.873,1.319-1.236,2.946-1.236c1.627,0,2.946,0.363,2.946,1.236H54.538z"></path><polygon points="71.825,48.207 64.705,48.207 64.705,47.495 71.825,47.228 "></polygon><g><rect x="23.412" y="61.734" width="1.78" height="14.951"></rect><rect x="22.7" y="69.566" width="2.848" height="8.899"></rect><rect x="22.344" y="71.345" width="3.916" height="7.476"></rect><path d="M25.192,75.558l9.24,3.533c0,0,1.439,0.534,1.439,1.134s0,1.087,0,1.087h-1.78v-1.02l-8.899-2.801   C22.344,77.492,25.192,75.558,25.192,75.558z"></path><circle cx="34.916" cy="82.292" r="0.8"></circle><path d="M23.768,75.558l-9.24,3.533c0,0-1.439,0.534-1.439,1.134s0,1.087,0,1.087h1.78v-1.02l8.899-2.801   C26.972,77.492,23.768,75.558,23.768,75.558z"></path><circle cx="13.889" cy="82.292" r="0.8"></circle><path d="M23.768,77.825c0,0.6,0,3.487,0,3.487h1.068v-3.421L23.768,77.825z"></path><circle cx="24.292" cy="82.292" r="0.8"></circle><path d="M32.516,64.226H14.868v-2.337c0,0-0.478-1.2,1.022-1.2c0.738,0,5.033,0.819,8.491,0.95   c4.008,0.151,6.271-0.532,7.279-0.532C32.672,61.106,32.516,64.226,32.516,64.226z"></path><polygon points="11.189,66.362 19.037,66.362 20.563,64.226 12.715,64.226  "></polygon><polygon points="13.262,67.074 10.861,67.074 11.539,59.598 13.939,59.598  "></polygon><polygon points="10.8,63.412 10.861,61.734 14.062,61.734 13.837,63.172  "></polygon><polygon points="10.4,66.614 10.461,64.938 13.662,64.938 13.437,66.376  "></polygon><path d="M14.681,59.037c0.531-0.799,0.014-3.335-1.161-10.233C12.431,42.417,10.8,34.205,9.736,32.9   c-0.725-0.89-3.182-1.377-3.582-0.443c-0.4,0.934,1.712,6.033,2.782,13.431c0.748,5.167,1.179,12.993,1.864,13.601   C11.485,60.095,14.149,59.836,14.681,59.037z"></path><path d="M24.836,65.289c0,0,2.379,0.15,3.129,0.2c0.75,0.05,1.126,0.4,1.126,0.4s-0.213,0.95-0.813,0.4   c-0.6-0.55-3.441-0.414-3.441-0.414V65.289z"></path><rect x="23.412" y="65.294" width="0.712" height="1.068"></rect></g><path d="M29.82,24.712c0,0,1.602,4.628,3.382,5.874c1.78,1.246,4.049,1.735,4.984,1.78c0.934,0.044,0.875-1.186,0.92-1.424  c0.044-0.237,0.059-0.282,0.119-0.341c0.059-0.059,0.148-0.163,0.208-0.193c0.059-0.03,0.208-0.297,0-0.43  c-0.208-0.133-0.148-0.059-0.148-0.059s0.199,0.133,0.255,0.03c0.056-0.104,0.16-0.119,0.071-0.222  c-0.089-0.104-0.074-0.193-0.119-0.341c-0.044-0.148,0.03-0.341,0.03-0.341s0.133,0.03,0.267,0.044c0.133,0.015,0.282,0,0.356-0.074  c0.074-0.074,0.237-0.222,0.311-0.311c0.074-0.089,0.03-0.163,0-0.237c-0.03-0.074-0.489-0.475-0.86-1.098  c-0.371-0.623-0.534-1.142-0.534-1.142s0.037-0.334,0.148-0.445c0.111-0.111,0.311-0.4,0.356-0.556  c0.044-0.156-0.2-0.645-0.067-1.424c0.133-0.779-0.734-2.915-2.158-3.716c-1.424-0.801-3.56-2.158-5.518-0.489  C29.865,21.264,30.043,23.266,29.82,24.712z"></path><path d="M39.569,23.696l2.488-2.04c0,0-1.668,0.342-2.202,0.253c-0.534-0.089-0.342-0.275-0.342-0.275l0.663-0.241  c0,0-0.332,0.116-0.7-0.002c-0.368-0.119,0.195-0.208,0.195-0.208s-0.297,0.089-0.534,0s-0.237-0.09-0.237-0.09  s0.237-0.386,0.653-0.771s0.593-1.839,0.593-1.839s-0.148,0.801-0.445,1.009c-0.297,0.208-0.979,0.653-0.979,0.653l0.178-0.83  l-0.178,0.326c0,0-0.386-0.148-0.178-0.356c0.208-0.208,0.623-0.178,0.623-0.178s0.119-0.312-0.534-0.304  c-0.653,0.008-0.623,0.542-0.623,0.542s0.148-0.564,0.267-0.86c0.119-0.297-0.089-0.653-0.267-0.801  c-0.178-0.148,0.089,0.237,0,0.445c-0.089,0.208-0.415,0.712-0.623,0.534c-0.208-0.178-0.059-0.593,0-0.771  c0.059-0.178,0.415-0.534,0.564-0.623S38.542,17,38.542,17s-0.148-0.208-0.86,0c-0.712,0.208-0.979,0.949-1.098,1.157  s-0.623,0.385-0.801,0.237c-0.178-0.148-0.267-0.742-0.267-0.742l-0.358,0.564l-2.134-0.771l-0.208,0.445l-0.712,0.148  c0,0-0.252,0.237-0.222,0.326c0.03,0.089,0.073,0.564,0.073,0.564v0.445c0,0-0.593-0.059-0.86,0.267  c-0.267,0.326-0.311,0.271-0.4,0.64c-0.089,0.369,0.096,0.428-0.141,0.606c-0.237,0.178-0.337,0.237-0.574,0.445  c-0.237,0.208-0.51,0.771-0.51,0.771s0.027,0.475-0.003,0.83c-0.03,0.356-0.031,0.252-0.001,0.72c0.03,0.467-0.164,1.09-0.023,1.357  c0.141,0.267,0.141,0.742,0.141,0.742l-0.03,1.364l0.267,0.742c0,0,0.208,0.934,0.682,0.934s0.653,0.193,0.653,0.193h0.979h0.356  h0.712L39.569,23.696z"></path><path d="M34.626,32.9c0,0-6.011-2.432-5.58,3.085c0.43,5.518,8.25,11.305,9.852,11.764c1.602,0.458,13.047,1.283,15.426,0.495  c0.22-0.073,0.593-2.973,0.593-2.973s-9.62-0.493-12.463-1.003C39.61,43.757,35.694,35.036,34.626,32.9z"></path><path d="M31.867,28.272c0,0,0,2.635-1.335,4.984c-1.335,2.349,0,4.628,0,4.628l3.382-1.958c0,0,2.132-2.91,1.956-5.015  C35.694,28.806,31.93,27.379,31.867,28.272z"></path><path d="M32.392,30.706c0,0-4.499,0.394-5.54,2.639c-1.238,2.67-3.266,5.429-4.599,8.454c-1.333,3.026-3.29,10.323-4.18,13.171  c-0.89,2.848,0.493,5.09,1.76,5.117c1.267,0.027,2.665,2.283,5.258-0.171c2.593-2.454,2.237-4.768,3.483-9.218  c1.246-4.45,4.19-7.592,6.408-10.501C37.2,37.288,34.431,31.716,32.392,30.706z"></path><path d="M20.451,63.378c0,0,5.062,0.294,8.642,0.185c3.58-0.108,7.702,0.434,8.352,0.651c0.651,0.217,4.298,0.651,4.298,0.651  s2.861-4.23,0.583-4.99c-2.278-0.76-14.548-4.312-17.588-4.312C21.697,55.564,17.183,59.939,20.451,63.378z"></path><path d="M40.517,64.703c0,0,1.617,1.139,2.689,3.091c1.072,1.953,1.723,4.448,2.808,6.075c1.085,1.627,3.037,3.308,4.447,4.149  c1.41,0.841,2.387,1.491,2.387,1.491l2.712-1.491c0,0-3.145-2.414-6.4-8.271c-3.254-5.858-3.786-8.151-6.075-9.204  C40.797,59.49,39.034,62.154,40.517,64.703z"></path><g><path d="M63.099,77.686c-0.788,0.313-1.872,0.975-3.033,1.261c-0.033-0.014-0.066-0.029-0.099-0.048l-0.027,0.081   c-0.044,0.01-0.087,0.017-0.131,0.025c-0.208-0.022-0.419,0.007-0.603,0.081c-0.295,0.027-0.534,0.053-0.726,0.075   c-0.378-0.158-0.896-0.277-1.086-0.079c-0.36-0.221-1.229-0.719-1.658-1.108c-0.447-0.407-0.569-0.407-1.058,0.081   c0,0-2.09,0.854-2.225,1.302c-0.134,0.447,1.696,1.627,2.022,2.278c0.325,0.651,0.108,1.41,0.759,1.41   c0.651,0,3.362-0.976,5.098-2.061c1.736-1.085,3.417-2.275,3.417-2.736L63.099,77.686z"></path></g><g><path d="M39.242,80.547c-0.396-0.75-1.172-1.756-1.582-2.879c0.01-0.034,0.022-0.068,0.037-0.103l-0.083-0.018   c-0.015-0.042-0.026-0.085-0.039-0.128c-0.001-0.209-0.052-0.415-0.146-0.591c-0.059-0.291-0.11-0.525-0.153-0.713   c0.116-0.392,0.179-0.921-0.039-1.088c0.181-0.382,0.582-1.3,0.923-1.768c0.356-0.488,0.343-0.61-0.195-1.043   c0,0-1.075-1.986-1.534-2.071c-0.459-0.085-1.435,1.862-2.047,2.256c-0.612,0.394-1.39,0.26-1.319,0.907   c0.07,0.648,1.333,3.238,2.599,4.846c1.266,1.609,2.631,3.152,3.089,3.102L39.242,80.547z"></path></g><path d="M38.16,73.258c0,0,2.763-3.536,4.67-5.555c1.907-2.019,4.024-6.268,4.288-7.064c0.264-0.796-1.476-5.671-3.296-4.188  c-1.82,1.484-1.255,3.584-2.931,5.006c-1.677,1.422-3.705,8.027-4.46,8.687C35.675,70.805,38.16,73.258,38.16,73.258z"></path><path d="M19.67,57.907c0,0,1.785-2.314,4.277-3.293c2.492-0.979,9.197-0.801,12.341-0.712c3.144,0.089,6.882,0.504,8.306,1.661  c1.424,1.157,2.608,4.445-0.756,4.259c-3.364-0.186-16.587,1.614-19.5,1.816C21.423,61.84,18.985,58.9,19.67,57.907z"></path><path d="M52.384,46.064c0,0,1.322,0.063,2.184-0.009c0.344-0.029,1.291-0.163,1.886-0.322c0.407-0.108,0.928-0.359,1.232-0.284  c0.172,0.042,0.371,0.263,0.686,0.457c0.315,0.193,1.21,0.457,1.36,0.531c0.149,0.074,0.487,0.38,0.744,0.549  c0.257,0.169,0.574,0.346,0.686,0.449c0.113,0.103,0.065,0.381-0.125,0.403c-0.17,0.02-0.382,0.189-0.585,0.238  c-0.115,0.029-0.687-0.04-0.922-0.16c-0.332-0.168-1.324-0.208-1.796-0.265c-0.472-0.058-1.117,0.287-1.653,0.309  c-0.536,0.022-1.867,0.041-2.263,0.035c-0.396-0.006-1.693-0.007-1.693-0.007L52.384,46.064z"></path><path d="M57.409,45.781c0,0,0.443-0.233,0.851-0.143c0.74,0.162,0.861,0.136,1.056,0.172c0.179,0.033,0.446,0.157,0.657,0.196  c0.211,0.038,0.423,0.101,0.523,0.11c0.1,0.01,0.25,0.114,0.306,0.143c0.056,0.029,0.4,0.172,0.412,0.201  c0.011,0.029,0.056,0.172-0.245,0.153c-0.3-0.019-0.506-0.129-0.573-0.153c-0.067-0.024-0.289,0.019-0.523-0.038  c-0.234-0.057-0.362-0.158-0.395-0.167c-0.033-0.01-0.234,0.014-0.456-0.024c-0.222-0.038-0.617-0.144-0.662-0.162  c-0.045-0.018-0.567,0.145-0.595,0.113C57.737,46.149,57.409,45.781,57.409,45.781z"></path></svg>